<svg xmlns="http://www.w3.org/2000/svg" xmlns:xlink="http://www.w3.org/1999/xlink" width="1080" zoomAndPan="magnify" viewBox="0 0 810 809.999993" height="1080" preserveAspectRatio="xMidYMid meet" version="1.0"><defs><g/><clipPath id="06277deac8"><path d="M 746 368 L 805.195312 368 L 805.195312 425 L 746 425 Z M 746 368 " clip-rule="nonzero"/></clipPath><clipPath id="9251093a4e"><path d="M 5.40625 387 L 65 387 L 65 445 L 5.40625 445 Z M 5.40625 387 " clip-rule="nonzero"/></clipPath></defs><path fill="#000000" d="M 403.15625 54.316406 C 306.644531 56.449219 224.71875 90.566406 157.390625 156.679688 C 148.140625 166.234375 139.519531 176.046875 131.53125 186.125 L 131.539062 186.125 C 134.675781 187.730469 137.535156 190.078125 140.121094 193.175781 C 147.203125 184.292969 154.78125 175.597656 162.847656 167.085938 C 229.585938 101.175781 310.066406 67.015625 404.289062 64.601562 C 429.582031 64.679688 453.976562 67.125 477.464844 71.949219 L 477.445312 71.949219 C 539.320312 85.523438 594.988281 115.820312 644.457031 162.84375 C 691.183594 210.296875 721.933594 264.6875 736.695312 326.011719 C 737.730469 325.71875 738.976562 325.441406 740.441406 325.175781 C 742.421875 324.839844 744.167969 324.65625 745.667969 324.621094 C 745.941406 324.597656 746.269531 324.589844 746.640625 324.589844 C 746.902344 324.589844 747.1875 324.59375 747.5 324.601562 C 732.976562 261.375 702.09375 205.636719 654.851562 157.378906 C 602.925781 106.972656 543.300781 75.214844 475.972656 62.105469 L 475.957031 62.105469 C 452.628906 57.25 428.363281 54.65625 403.160156 54.316406 Z M 403.15625 54.316406 " fill-opacity="1" fill-rule="nonzero"/><path fill="#000000" d="M 74.828125 486.226562 C 73.800781 486.519531 72.554688 486.796875 71.101562 487.0625 C 69.113281 487.394531 67.371094 487.582031 65.867188 487.617188 C 65.59375 487.636719 65.273438 487.644531 64.894531 487.644531 L 64.039062 487.644531 C 78.5625 550.871094 109.445312 606.613281 156.691406 654.867188 C 208.730469 705.390625 268.511719 737.179688 336.03125 750.238281 L 336.019531 750.238281 C 359.210938 755.03125 383.332031 757.597656 408.378906 757.933594 C 504.898438 755.804688 586.820312 721.679688 654.148438 655.570312 C 663.398438 646.019531 672.015625 636.207031 680.003906 626.136719 L 680.019531 626.136719 C 676.878906 624.535156 674.015625 622.183594 671.429688 619.085938 L 671.414062 619.085938 C 664.328125 627.960938 656.757812 636.65625 648.691406 645.164062 C 581.953125 711.070312 501.472656 745.234375 407.253906 747.652344 C 382.132812 747.570312 357.898438 745.152344 334.558594 740.402344 L 334.546875 740.402344 C 272.492188 726.871094 216.667969 696.539062 167.082031 649.402344 C 120.355469 601.953125 89.609375 547.566406 74.839844 486.238281 Z M 74.828125 486.226562 " fill-opacity="1" fill-rule="nonzero"/><path fill="#000000" d="M 699.894531 574.96875 C 701.089844 574.90625 701.875 574.296875 702.257812 573.152344 C 702.398438 565.46875 703.40625 559.542969 705.292969 555.378906 L 711.941406 540.15625 C 718.171875 528.414062 722.753906 519.246094 725.683594 512.648438 C 727.375 509.101562 728.664062 505.960938 729.554688 503.222656 C 737.234375 479.203125 742.480469 460.910156 745.277344 448.339844 C 748.691406 431.300781 750.707031 410.539062 751.332031 386.050781 C 751.191406 366.304688 749.570312 356.519531 746.472656 356.6875 C 745.152344 356.761719 744.347656 357.515625 744.070312 358.953125 C 745.207031 362.902344 745.949219 369.359375 746.304688 378.3125 L 746.433594 386.671875 L 745.367188 409.015625 C 744.546875 421.582031 742.917969 434.375 740.488281 447.382812 C 737.261719 461.628906 731.699219 480.75 723.800781 504.75 C 723.375 506.09375 720.863281 511.550781 716.253906 521.125 C 711.3125 530.453125 708.292969 536.332031 707.195312 538.765625 L 700.917969 553.179688 C 700.378906 554.464844 699.925781 555.671875 699.558594 556.816406 C 698.851562 559.113281 698.257812 561.972656 697.785156 565.402344 L 697.457031 572.667969 C 697.714844 574.121094 698.515625 574.890625 699.855469 574.96875 " fill-opacity="1" fill-rule="nonzero"/><path fill="#000000" d="M 111.644531 237.261719 C 110.449219 237.332031 109.664062 237.933594 109.285156 239.082031 C 109.144531 246.761719 108.128906 252.6875 106.246094 256.851562 L 99.601562 272.082031 C 93.371094 283.820312 88.789062 292.988281 85.855469 299.585938 C 84.167969 303.136719 82.875 306.277344 81.988281 309.015625 C 74.300781 333.03125 69.0625 351.328125 66.261719 363.898438 C 62.851562 380.929688 60.832031 401.695312 60.203125 426.1875 C 60.351562 445.929688 61.96875 455.71875 65.0625 455.542969 C 66.390625 455.476562 67.195312 454.71875 67.472656 453.285156 C 66.335938 449.328125 65.585938 442.878906 65.230469 433.917969 L 65.105469 425.566406 L 66.167969 403.214844 C 66.992188 390.648438 68.617188 377.863281 71.050781 364.847656 C 74.277344 350.605469 79.839844 331.484375 87.738281 307.484375 C 88.160156 306.144531 90.679688 300.6875 95.285156 291.109375 C 100.226562 281.785156 103.246094 275.902344 104.34375 273.46875 L 110.621094 259.050781 C 111.164062 257.769531 111.617188 256.558594 111.980469 255.414062 C 112.691406 253.125 113.28125 250.257812 113.757812 246.832031 L 114.082031 239.570312 C 113.820312 238.113281 113.023438 237.347656 111.683594 237.261719 " fill-opacity="1" fill-rule="nonzero"/><path fill="#000000" d="M 772.226562 464.707031 L 768.507812 461.03125 L 761.25 454.550781 L 759.195312 452.5 C 757.324219 450.5625 755.703125 448.421875 754.328125 446.078125 C 752.992188 443.839844 751.824219 440.628906 750.8125 436.457031 C 749.503906 430.589844 748.898438 426.683594 749.003906 424.742188 C 756.125 426.90625 762.222656 432.089844 767.300781 440.296875 C 772.058594 448.875 773.703125 456.992188 772.238281 464.640625 M 774.4375 472.671875 C 775.144531 472.238281 775.617188 471.675781 775.839844 470.980469 C 776.386719 468.925781 776.785156 467.101562 777.039062 465.511719 C 777.613281 463.191406 777.742188 459.914062 777.425781 455.679688 C 776.75 449.402344 774.882812 443.636719 771.832031 438.386719 C 767.960938 432.035156 763.757812 427.328125 759.21875 424.269531 C 757.953125 423.382812 756.351562 422.453125 754.421875 421.476562 C 754.234375 421.332031 752.976562 420.882812 750.644531 420.132812 C 748.226562 419.171875 746.316406 418.960938 744.90625 419.5 C 744.121094 420.035156 743.722656 420.730469 743.71875 421.574219 C 743.722656 422.066406 743.851562 422.535156 744.101562 422.964844 C 744.089844 426.066406 744.285156 428.664062 744.691406 430.761719 C 746.058594 438.558594 747.652344 444.117188 749.480469 447.441406 C 750.84375 450.011719 752.671875 452.570312 754.960938 455.117188 L 757.574219 457.804688 C 762.46875 462.007812 766.308594 465.570312 769.097656 468.484375 C 769.519531 468.878906 769.988281 469.410156 770.507812 470.082031 C 771.03125 471.304688 771.414062 471.984375 771.648438 472.121094 C 772.613281 473.054688 773.539062 473.238281 774.4375 472.675781 " fill-opacity="1" fill-rule="nonzero"/><path fill="#000000" d="M 39.316406 347.527344 L 43.03125 351.203125 L 50.289062 357.6875 L 52.347656 359.734375 C 54.210938 361.671875 55.835938 363.8125 57.210938 366.15625 C 58.546875 368.398438 59.71875 371.601562 60.722656 375.78125 C 62.039062 381.648438 62.640625 385.554688 62.539062 387.496094 C 55.414062 385.328125 49.316406 380.140625 44.242188 371.941406 C 39.484375 363.363281 37.835938 355.246094 39.304688 347.597656 M 37.097656 339.5625 C 36.390625 339.996094 35.925781 340.5625 35.695312 341.253906 C 35.152344 343.3125 34.75 345.136719 34.496094 346.722656 C 33.925781 349.042969 33.796875 352.320312 34.109375 356.554688 C 34.789062 362.832031 36.65625 368.597656 39.710938 373.851562 C 43.574219 380.203125 47.78125 384.90625 52.320312 387.96875 C 53.589844 388.851562 55.1875 389.785156 57.121094 390.757812 C 57.304688 390.902344 58.5625 391.351562 60.898438 392.105469 C 63.308594 393.0625 65.222656 393.277344 66.636719 392.734375 C 67.421875 392.199219 67.8125 391.507812 67.824219 390.660156 C 67.8125 390.167969 67.691406 389.703125 67.441406 389.273438 C 67.453125 386.171875 67.25 383.574219 66.84375 381.476562 C 65.480469 373.675781 63.886719 368.113281 62.058594 364.792969 C 60.691406 362.226562 58.867188 359.664062 56.582031 357.117188 L 53.96875 354.433594 C 49.066406 350.226562 45.226562 346.667969 42.445312 343.75 C 42.023438 343.351562 41.550781 342.820312 41.027344 342.15625 C 40.503906 340.929688 40.128906 340.25 39.894531 340.113281 C 38.929688 339.183594 38 339 37.101562 339.5625 " fill-opacity="1" fill-rule="nonzero"/><path fill="#000000" d="M 763.992188 449.519531 C 765 448.832031 765.363281 447.902344 765.09375 446.734375 C 764.148438 444.152344 762.722656 441.371094 760.8125 438.390625 L 754.632812 428.953125 C 752.886719 426.5 751.46875 424.664062 750.375 423.445312 C 750.105469 423.125 749.714844 422.710938 749.203125 422.203125 C 748.976562 422.003906 748.730469 421.855469 748.46875 421.757812 C 747.730469 421.5 747.035156 421.550781 746.375 421.917969 C 745.113281 422.839844 744.832031 423.980469 745.527344 425.34375 C 747.042969 426.957031 748.667969 428.980469 750.398438 431.421875 C 754.167969 437.230469 756.222656 440.367188 756.574219 440.828125 C 756.960938 441.402344 757.730469 442.707031 758.867188 444.746094 C 759.457031 445.867188 760.011719 447.101562 760.539062 448.453125 C 760.613281 448.613281 760.699219 448.757812 760.796875 448.882812 C 761.707031 449.910156 762.769531 450.125 763.972656 449.53125 " fill-opacity="1" fill-rule="nonzero"/><path fill="#000000" d="M 47.542969 362.71875 C 46.542969 363.402344 46.175781 364.332031 46.445312 365.496094 C 47.386719 368.082031 48.816406 370.867188 50.730469 373.847656 L 56.902344 383.28125 C 58.652344 385.730469 60.070312 387.570312 61.164062 388.792969 C 61.429688 389.109375 61.824219 389.523438 62.335938 390.035156 C 62.566406 390.230469 62.8125 390.378906 63.074219 390.476562 C 63.808594 390.738281 64.503906 390.683594 65.160156 390.316406 C 66.421875 389.398438 66.707031 388.253906 66.007812 386.886719 C 64.496094 385.28125 62.871094 383.253906 61.136719 380.808594 C 57.375 375.003906 55.316406 371.867188 54.96875 371.410156 C 54.574219 370.832031 53.808594 369.523438 52.671875 367.492188 C 52.085938 366.371094 51.53125 365.132812 51.003906 363.78125 C 50.925781 363.625 50.84375 363.480469 50.746094 363.351562 C 49.828125 362.328125 48.769531 362.109375 47.566406 362.703125 " fill-opacity="1" fill-rule="nonzero"/><path fill="#000000" d="M 705.96875 453.96875 C 706.121094 453.851562 707.554688 451.882812 710.273438 448.066406 L 715.113281 440.476562 L 718.265625 436.175781 C 721.320312 432.160156 724.070312 429.023438 726.511719 426.769531 C 730.355469 422.96875 735.28125 420.660156 741.296875 419.839844 C 741.707031 419.792969 742.484375 419.808594 743.625 419.878906 C 743.246094 420.21875 743 420.617188 742.871094 421.074219 C 742.648438 423.929688 742.039062 426.773438 741.035156 429.605469 C 738.726562 435.164062 735.664062 439.691406 731.835938 443.191406 C 724.710938 449.59375 716.117188 453.183594 706.054688 453.964844 M 698.035156 458.460938 C 698.355469 458.695312 698.855469 458.832031 699.527344 458.871094 C 701.542969 459.023438 704.054688 459 707.054688 458.800781 C 710.636719 458.460938 713.960938 457.859375 717.019531 456.992188 C 724.316406 454.632812 730.070312 451.492188 734.296875 447.566406 C 739.332031 443.070312 743.109375 437.632812 745.636719 431.253906 C 746.617188 428.484375 747.277344 425.65625 747.621094 422.757812 C 747.84375 421.53125 747.574219 420.558594 746.808594 419.847656 C 747.628906 419.253906 747.996094 418.488281 747.921875 417.554688 C 747.851562 416.828125 747.5 416.230469 746.859375 415.761719 C 745.972656 415.140625 744.316406 414.863281 741.882812 414.929688 C 740.238281 414.894531 738.386719 415.214844 736.324219 415.886719 C 731.757812 417.003906 727.660156 419.183594 724.03125 422.421875 C 721.011719 425.117188 717.878906 428.605469 714.632812 432.878906 L 711.414062 437.234375 C 708.035156 442.800781 704.949219 447.359375 702.167969 450.902344 C 701.402344 451.804688 700.792969 452.441406 700.332031 452.828125 C 699.996094 453.171875 699.265625 453.671875 698.140625 454.324219 C 697.875 454.539062 697.6875 454.734375 697.570312 454.914062 C 696.863281 456.300781 697.003906 457.472656 697.988281 458.429688 " fill-opacity="1" fill-rule="nonzero"/><path fill="#000000" d="M 105.570312 358.265625 C 105.417969 358.382812 103.984375 360.351562 101.269531 364.167969 L 96.425781 371.757812 L 93.277344 376.058594 C 90.214844 380.078125 87.464844 383.210938 85.027344 385.464844 C 81.1875 389.265625 76.261719 391.578125 70.242188 392.398438 C 69.832031 392.4375 69.054688 392.425781 67.910156 392.359375 C 68.289062 392.019531 68.542969 391.621094 68.667969 391.160156 C 68.886719 388.304688 69.503906 385.457031 70.503906 382.628906 C 72.8125 377.074219 75.878906 372.546875 79.703125 369.042969 C 86.828125 362.640625 95.425781 359.050781 105.488281 358.269531 M 113.503906 353.777344 C 113.183594 353.539062 112.6875 353.402344 112.015625 353.363281 C 109.996094 353.207031 107.488281 353.234375 104.480469 353.4375 C 100.902344 353.777344 97.582031 354.375 94.515625 355.246094 C 87.222656 357.601562 81.46875 360.742188 77.246094 364.671875 C 72.210938 369.160156 68.429688 374.597656 65.902344 380.984375 C 64.921875 383.75 64.257812 386.582031 63.917969 389.476562 C 63.691406 390.707031 63.964844 391.675781 64.730469 392.390625 C 63.914062 392.980469 63.542969 393.746094 63.617188 394.679688 C 63.6875 395.40625 64.042969 396.007812 64.679688 396.472656 C 65.566406 397.09375 67.222656 397.371094 69.652344 397.308594 C 71.300781 397.339844 73.15625 397.023438 75.214844 396.34375 C 79.785156 395.234375 83.882812 393.054688 87.507812 389.816406 C 90.527344 387.117188 93.660156 383.628906 96.90625 379.355469 L 100.121094 375.003906 C 103.503906 369.433594 106.585938 364.875 109.367188 361.335938 C 110.132812 360.433594 110.75 359.792969 111.207031 359.40625 C 111.542969 359.0625 112.273438 358.566406 113.394531 357.914062 C 113.660156 357.699219 113.851562 357.5 113.96875 357.324219 C 114.671875 355.933594 114.535156 354.761719 113.550781 353.808594 " fill-opacity="1" fill-rule="nonzero"/><path fill="#000000" d="M 721.644531 441.949219 C 722.617188 442.523438 723.558594 442.496094 724.472656 441.859375 C 725.285156 441.09375 726.109375 440.246094 726.949219 439.3125 L 732.304688 432.957031 C 733.398438 431.734375 734.617188 430.546875 735.964844 429.410156 C 737.625 427.941406 739.453125 426.625 741.433594 425.445312 C 741.6875 425.234375 743.023438 424.578125 745.445312 423.472656 L 746.804688 422.960938 C 746.984375 422.875 747.167969 422.75 747.367188 422.578125 C 747.929688 422.050781 748.195312 421.394531 748.167969 420.613281 C 748.097656 419.824219 747.746094 419.203125 747.101562 418.742188 C 746.503906 418.347656 745.851562 418.230469 745.128906 418.398438 C 744.777344 418.375 743.105469 419.105469 740.121094 420.582031 C 737.117188 422.214844 734.308594 424.242188 731.691406 426.652344 C 730.914062 427.328125 729.804688 428.445312 728.378906 430.007812 L 723.398438 435.953125 L 720.949219 438.574219 C 720.257812 439.914062 720.488281 441.035156 721.636719 441.949219 " fill-opacity="1" fill-rule="nonzero"/><path fill="#000000" d="M 89.894531 370.28125 C 88.925781 369.710938 87.980469 369.742188 87.0625 370.378906 C 86.253906 371.144531 85.429688 371.988281 84.589844 372.921875 L 79.234375 379.28125 C 78.144531 380.503906 76.925781 381.683594 75.578125 382.828125 C 73.910156 384.289062 72.089844 385.609375 70.105469 386.792969 C 69.855469 387 68.515625 387.65625 66.09375 388.765625 L 64.734375 389.277344 C 64.558594 389.359375 64.367188 389.484375 64.175781 389.65625 C 63.613281 390.1875 63.34375 390.84375 63.375 391.625 C 63.4375 392.410156 63.796875 393.035156 64.441406 393.492188 C 65.03125 393.886719 65.691406 394.003906 66.410156 393.839844 C 66.761719 393.859375 68.429688 393.132812 71.417969 391.652344 C 74.421875 390.023438 77.234375 387.996094 79.84375 385.582031 C 80.625 384.910156 81.730469 383.789062 83.160156 382.226562 L 88.140625 376.28125 L 90.589844 373.660156 C 91.277344 372.324219 91.050781 371.199219 89.898438 370.285156 " fill-opacity="1" fill-rule="nonzero"/><path fill="#000000" d="M 704.609375 490.148438 C 713.652344 489.890625 721.6875 484.605469 728.71875 474.292969 C 731.316406 470.601562 734.25 465.28125 737.539062 458.332031 C 738.148438 457.054688 738.871094 455.414062 739.707031 453.417969 L 748.097656 433.140625 C 748.855469 431.265625 749.078125 430.109375 748.773438 429.671875 C 748.433594 428.640625 747.671875 428.0625 746.496094 427.945312 C 745.53125 427.925781 744.78125 428.386719 744.242188 429.324219 C 743.84375 430.589844 743.53125 431.480469 743.300781 431.996094 L 734.554688 453.058594 C 733.363281 455.84375 731.738281 459.214844 729.675781 463.167969 C 726.429688 469.183594 723.398438 473.765625 720.589844 476.914062 C 715.925781 481.742188 711.375 484.460938 706.925781 485.070312 C 705.734375 485.347656 704.347656 485.328125 702.75 485.023438 C 702 484.792969 701.8125 484.480469 702.203125 484.074219 C 703.355469 482.328125 704.914062 481.058594 706.890625 480.257812 C 707.503906 479.953125 708.125 479.761719 708.734375 479.699219 C 709.3125 480.171875 709.953125 480.371094 710.664062 480.304688 C 711.222656 480.246094 711.714844 480 712.148438 479.570312 C 713.355469 477.933594 712.957031 476.5 710.957031 475.269531 C 709.636719 474.5 707.652344 474.660156 705.011719 475.742188 C 702.324219 476.871094 700.121094 478.578125 698.398438 480.867188 C 696.890625 483.238281 696.765625 485.433594 698.03125 487.457031 C 699.65625 489.347656 701.839844 490.246094 704.578125 490.148438 " fill-opacity="1" fill-rule="nonzero"/><path fill="#000000" d="M 106.929688 322.089844 C 97.890625 322.34375 89.851562 327.628906 82.816406 337.941406 C 80.226562 341.636719 77.285156 346.957031 74 353.90625 C 73.394531 355.179688 72.667969 356.816406 71.832031 358.816406 L 63.4375 379.09375 C 62.683594 380.972656 62.457031 382.128906 62.761719 382.5625 C 63.109375 383.597656 63.867188 384.171875 65.042969 384.289062 C 66.007812 384.304688 66.761719 383.847656 67.296875 382.910156 C 67.699219 381.648438 68.011719 380.757812 68.242188 380.242188 L 76.984375 359.175781 C 78.175781 356.394531 79.804688 353.023438 81.863281 349.066406 C 85.109375 343.054688 88.136719 338.46875 90.953125 335.320312 C 95.609375 330.496094 100.167969 327.777344 104.613281 327.164062 C 105.800781 326.890625 107.191406 326.90625 108.789062 327.214844 C 109.542969 327.441406 109.722656 327.757812 109.335938 328.160156 C 108.1875 329.90625 106.625 331.175781 104.652344 331.972656 C 104.03125 332.285156 103.417969 332.472656 102.800781 332.539062 C 102.226562 332.066406 101.585938 331.863281 100.878906 331.933594 C 100.320312 331.988281 99.824219 332.234375 99.390625 332.667969 C 98.179688 334.300781 98.578125 335.730469 100.582031 336.964844 C 101.902344 337.734375 103.886719 337.578125 106.53125 336.492188 C 109.210938 335.363281 111.417969 333.65625 113.140625 331.371094 C 114.648438 328.996094 114.769531 326.800781 113.511719 324.777344 C 111.886719 322.886719 109.703125 321.988281 106.964844 322.089844 " fill-opacity="1" fill-rule="nonzero"/><path fill="#000000" d="M 738.679688 565.253906 L 731.371094 552.847656 C 730.257812 550.890625 729.523438 549.507812 729.167969 548.707031 C 727.578125 545.378906 726.238281 541.445312 725.144531 536.898438 C 724.328125 533.195312 724.027344 529.136719 724.25 524.722656 C 724.445312 522.484375 724.777344 520.554688 725.253906 518.933594 C 725.421875 518.347656 725.578125 517.921875 725.714844 517.648438 C 726.515625 516.949219 726.941406 516.460938 727.003906 516.183594 C 727.210938 515.691406 727.273438 515.203125 727.175781 514.710938 C 729.414062 515.300781 732.453125 518.351562 736.304688 523.863281 C 739.175781 528.535156 740.992188 532.882812 741.742188 536.902344 C 742.894531 541.371094 743.1875 546.804688 742.625 553.191406 C 742.003906 557.839844 740.695312 561.847656 738.695312 565.21875 M 738.785156 572.816406 C 739.644531 573.0625 741.234375 570.945312 743.554688 566.46875 C 745.121094 563.621094 746.277344 560.324219 747.015625 556.582031 C 748.214844 549.097656 748.019531 542.050781 746.417969 535.445312 C 744.804688 528.367188 741.449219 521.839844 736.355469 515.878906 C 734.46875 513.625 732.445312 511.925781 730.289062 510.78125 C 727.945312 509.382812 725.777344 508.824219 723.773438 509.101562 C 722.703125 509.378906 722.027344 509.980469 721.75 510.902344 C 721.472656 511.972656 721.808594 512.894531 722.757812 513.667969 C 721.269531 514.644531 720.191406 517.746094 719.523438 522.96875 C 719.074219 528.757812 719.382812 533.851562 720.449219 538.25 C 721.816406 543.84375 723.527344 548.589844 725.589844 552.480469 L 727.460938 555.84375 L 733.925781 566.734375 L 735.027344 568.855469 C 735.679688 570.660156 736.039062 571.550781 736.121094 571.53125 C 736.96875 572.625 737.847656 573.058594 738.742188 572.828125 " fill-opacity="1" fill-rule="nonzero"/><path fill="#000000" d="M 72.863281 246.976562 L 80.164062 259.386719 C 81.28125 261.347656 82.015625 262.730469 82.371094 263.53125 C 83.957031 266.859375 85.300781 270.792969 86.390625 275.335938 C 87.210938 279.039062 87.507812 283.097656 87.292969 287.515625 C 87.09375 289.75 86.757812 291.679688 86.28125 293.300781 C 86.113281 293.882812 85.960938 294.316406 85.820312 294.589844 C 85.023438 295.285156 84.59375 295.777344 84.539062 296.054688 C 84.324219 296.542969 84.269531 297.035156 84.359375 297.523438 C 82.128906 296.933594 79.082031 293.882812 75.234375 288.371094 C 72.359375 283.699219 70.550781 279.351562 69.796875 275.335938 C 68.648438 270.859375 68.351562 265.433594 68.914062 259.042969 C 69.535156 254.394531 70.84375 250.382812 72.84375 247.011719 M 72.753906 239.417969 C 71.894531 239.171875 70.304688 241.289062 67.988281 245.765625 C 66.414062 248.613281 65.261719 251.910156 64.519531 255.65625 C 63.320312 263.140625 63.523438 270.183594 65.121094 276.789062 C 66.738281 283.871094 70.089844 290.390625 75.183594 296.355469 C 77.070312 298.613281 79.09375 300.3125 81.246094 301.457031 C 83.59375 302.851562 85.765625 303.414062 87.761719 303.132812 C 88.835938 302.851562 89.507812 302.253906 89.789062 301.332031 C 90.0625 300.257812 89.730469 299.335938 88.785156 298.5625 C 90.273438 297.589844 91.351562 294.492188 92.019531 289.269531 C 92.464844 283.476562 92.15625 278.386719 91.09375 273.984375 C 89.726562 268.386719 88.011719 263.648438 85.949219 259.757812 L 84.078125 256.394531 L 77.617188 245.5 L 76.511719 243.378906 C 75.863281 241.574219 75.496094 240.679688 75.414062 240.703125 C 74.566406 239.609375 73.695312 239.175781 72.796875 239.410156 " fill-opacity="1" fill-rule="nonzero"/><path fill="#000000" d="M 736.203125 544.964844 C 737.230469 544.648438 737.835938 543.933594 738.003906 542.816406 C 738.027344 542.503906 738 542.214844 737.917969 541.941406 C 737.253906 539.828125 736.886719 538.695312 736.816406 538.554688 C 736.386719 537.390625 735.960938 536.296875 735.539062 535.273438 L 732.917969 529.457031 L 732.035156 527.238281 C 731.519531 525.84375 731.027344 524.410156 730.566406 522.933594 L 728.847656 516.917969 C 728.539062 515.917969 728.234375 515.105469 727.925781 514.492188 C 727.101562 512.640625 725.945312 511.882812 724.460938 512.21875 C 723.144531 512.703125 722.554688 513.632812 722.699219 515.015625 C 722.730469 515.203125 722.792969 515.40625 722.890625 515.613281 C 722.914062 515.710938 723.105469 516.003906 723.46875 516.496094 C 723.691406 516.957031 723.859375 517.359375 723.972656 517.707031 C 724.242188 518.527344 724.429688 519.121094 724.539062 519.5 L 725.863281 524.257812 C 726.289062 525.605469 726.695312 526.824219 727.082031 527.910156 C 727.542969 529.195312 727.941406 530.234375 728.28125 531.03125 L 731.238281 537.652344 C 731.894531 539.324219 732.230469 540.207031 732.25 540.292969 L 733.25 543.359375 C 733.292969 543.496094 733.347656 543.625 733.410156 543.746094 C 734.066406 544.804688 734.992188 545.210938 736.183594 544.96875 " fill-opacity="1" fill-rule="nonzero"/><path fill="#000000" d="M 75.335938 267.273438 C 74.304688 267.585938 73.707031 268.300781 73.539062 269.417969 C 73.511719 269.730469 73.542969 270.023438 73.617188 270.292969 C 74.285156 272.40625 74.652344 273.539062 74.71875 273.679688 C 75.15625 274.84375 75.582031 275.9375 76 276.964844 L 78.617188 282.773438 L 79.503906 284.996094 C 80.019531 286.386719 80.511719 287.824219 80.972656 289.304688 L 82.6875 295.316406 C 82.996094 296.320312 83.308594 297.125 83.613281 297.746094 C 84.4375 299.59375 85.589844 300.351562 87.074219 300.015625 C 88.394531 299.535156 88.980469 298.605469 88.839844 297.222656 C 88.808594 297.03125 88.746094 296.832031 88.652344 296.621094 C 88.628906 296.523438 88.433594 296.226562 88.070312 295.742188 C 87.847656 295.28125 87.679688 294.875 87.570312 294.523438 C 87.296875 293.710938 87.109375 293.113281 87 292.734375 L 85.675781 287.980469 C 85.253906 286.628906 84.847656 285.410156 84.457031 284.324219 C 84 283.042969 83.601562 282 83.257812 281.199219 L 80.300781 274.582031 C 79.644531 272.910156 79.304688 272.027344 79.285156 271.941406 L 78.292969 268.875 C 78.246094 268.738281 78.191406 268.609375 78.125 268.484375 C 77.472656 267.429688 76.546875 267.023438 75.355469 267.269531 " fill-opacity="1" fill-rule="nonzero"/><path fill="#000000" d="M 726.890625 587.1875 C 728.628906 586.734375 729.765625 585.484375 730.300781 583.4375 C 730.648438 581.601562 730.261719 579.613281 729.144531 577.480469 C 727.109375 574.367188 724.691406 573.128906 721.898438 573.765625 C 720.652344 574.539062 720.265625 575.597656 720.738281 576.945312 C 720.957031 577.417969 721.269531 577.78125 721.671875 578.03125 C 721.980469 578.265625 722.570312 578.425781 723.449219 578.507812 C 723.628906 578.539062 723.921875 578.777344 724.332031 579.214844 C 725.042969 579.871094 725.453125 580.859375 725.5625 582.1875 C 725.554688 582.394531 725.503906 582.503906 725.40625 582.515625 C 725.023438 582.542969 724.597656 582.511719 724.132812 582.414062 C 723.058594 582.195312 722.121094 581.8125 721.324219 581.273438 C 717.867188 578.71875 715.820312 574.136719 715.191406 567.519531 C 714.695312 563.046875 715.191406 556.769531 716.6875 548.691406 C 717.203125 546.023438 717.835938 543.171875 718.601562 540.125 C 719.464844 536.886719 720.5 533.429688 721.699219 529.75 C 722.226562 527.636719 722.667969 525.992188 723.027344 524.820312 L 723.375 522.785156 C 723.476562 521.984375 723.203125 521.277344 722.5625 520.652344 C 721.9375 520.113281 721.195312 519.941406 720.339844 520.125 C 719.492188 520.378906 718.917969 520.910156 718.636719 521.714844 C 718.523438 522.089844 718.414062 522.722656 718.296875 523.617188 C 717.976562 524.632812 717.535156 526.265625 716.96875 528.519531 C 715.859375 531.917969 714.851562 535.273438 713.957031 538.589844 C 713.386719 540.808594 712.824219 543.222656 712.273438 545.839844 C 710.386719 555.359375 709.738281 562.746094 710.332031 567.992188 C 710.867188 574.171875 712.660156 579.058594 715.71875 582.648438 C 718.757812 586.265625 722.480469 587.777344 726.871094 587.191406 " fill-opacity="1" fill-rule="nonzero"/><path fill="#000000" d="M 84.644531 225.046875 C 82.910156 225.5 81.773438 226.75 81.238281 228.800781 C 80.890625 230.636719 81.277344 232.621094 82.394531 234.757812 C 84.433594 237.867188 86.847656 239.101562 89.640625 238.464844 C 90.882812 237.695312 91.273438 236.636719 90.804688 235.289062 C 90.582031 234.8125 90.269531 234.449219 89.867188 234.199219 C 89.5625 233.96875 88.96875 233.808594 88.09375 233.726562 C 87.910156 233.691406 87.617188 233.457031 87.207031 233.015625 C 86.492188 232.363281 86.082031 231.375 85.972656 230.042969 C 85.980469 229.84375 86.039062 229.734375 86.132812 229.722656 C 86.515625 229.695312 86.9375 229.726562 87.40625 229.820312 C 88.484375 230.039062 89.417969 230.417969 90.210938 230.960938 C 93.675781 233.511719 95.71875 238.09375 96.347656 244.71875 C 96.84375 249.1875 96.347656 255.464844 94.851562 263.546875 C 94.339844 266.210938 93.699219 269.066406 92.933594 272.105469 C 92.070312 275.34375 91.042969 278.804688 89.84375 282.484375 C 89.316406 284.597656 88.875 286.238281 88.511719 287.410156 L 88.160156 289.453125 C 88.066406 290.246094 88.335938 290.960938 88.976562 291.582031 C 89.601562 292.121094 90.34375 292.296875 91.199219 292.113281 C 92.050781 291.855469 92.617188 291.320312 92.902344 290.519531 C 93.011719 290.144531 93.125 289.507812 93.242188 288.617188 C 93.5625 287.601562 94 285.96875 94.566406 283.714844 C 95.683594 280.316406 96.6875 276.964844 97.582031 273.648438 C 98.152344 271.429688 98.714844 269.011719 99.261719 266.398438 C 101.15625 256.871094 101.804688 249.488281 101.207031 244.246094 C 100.671875 238.058594 98.875 233.171875 95.824219 229.589844 C 92.777344 225.972656 89.0625 224.457031 84.671875 225.042969 " fill-opacity="1" fill-rule="nonzero"/><path fill="#000000" d="M 779.761719 502 C 782.082031 499.449219 783 496.878906 782.507812 494.277344 C 782.050781 491.375 780.289062 489.210938 777.226562 487.785156 C 772.957031 486.097656 769.617188 487.019531 767.191406 490.558594 C 765.65625 493.738281 765.824219 495.746094 767.683594 496.582031 C 768.625 496.917969 769.472656 496.773438 770.222656 496.144531 C 770.539062 495.855469 770.765625 495.523438 770.894531 495.164062 C 771.175781 493.808594 771.386719 493.023438 771.53125 492.804688 C 771.777344 492.464844 772.234375 492.164062 772.90625 491.90625 C 775.132812 491.8125 776.691406 492.722656 777.578125 494.628906 C 778.074219 495.683594 777.644531 496.992188 776.292969 498.550781 C 774.335938 500.074219 772.417969 500.816406 770.535156 500.785156 C 763.730469 500.683594 757.753906 496.832031 752.609375 489.234375 C 750.757812 485.71875 749.464844 479.898438 748.730469 471.765625 C 748.453125 468.28125 748.273438 464.46875 748.199219 460.339844 C 748.167969 458.476562 748.171875 456.609375 748.210938 454.742188 L 748.601562 441.453125 C 748.640625 439.441406 748.503906 437.214844 748.191406 434.757812 C 747.988281 432.691406 747.566406 431.496094 746.933594 431.171875 C 745.863281 430.417969 744.800781 430.464844 743.738281 431.296875 C 743.242188 431.789062 742.988281 432.359375 742.964844 433.015625 C 743.375 435.074219 743.621094 437.316406 743.707031 439.742188 L 743.695312 444.222656 C 743.433594 450.023438 743.300781 454.667969 743.296875 458.15625 C 743.285156 461.75 743.449219 466.101562 743.785156 471.207031 C 744.523438 480.371094 746 487.09375 748.21875 491.371094 C 749.96875 494.476562 752.390625 497.277344 755.484375 499.78125 C 757.644531 501.761719 760.496094 503.410156 764.042969 504.722656 C 770.671875 506.546875 775.910156 505.644531 779.746094 502.015625 " fill-opacity="1" fill-rule="nonzero"/><path fill="#000000" d="M 31.777344 310.234375 C 29.457031 312.78125 28.539062 315.355469 29.03125 317.957031 C 29.488281 320.855469 31.25 323.023438 34.3125 324.449219 C 38.578125 326.136719 41.925781 325.214844 44.351562 321.679688 C 45.882812 318.496094 45.71875 316.488281 43.855469 315.652344 C 42.914062 315.316406 42.070312 315.460938 41.316406 316.089844 C 40.996094 316.382812 40.773438 316.707031 40.644531 317.070312 C 40.363281 318.429688 40.152344 319.214844 40.011719 319.429688 C 39.765625 319.769531 39.308594 320.066406 38.636719 320.328125 C 36.40625 320.417969 34.851562 319.511719 33.960938 317.601562 C 33.46875 316.546875 33.894531 315.242188 35.25 313.683594 C 37.203125 312.160156 39.121094 311.417969 41.003906 311.453125 C 47.808594 311.554688 53.785156 315.402344 58.929688 323.003906 C 60.78125 326.515625 62.074219 332.335938 62.8125 340.46875 C 63.085938 343.957031 63.261719 347.761719 63.34375 351.894531 C 63.375 353.761719 63.371094 355.625 63.328125 357.492188 L 62.9375 370.785156 C 62.894531 372.789062 63.035156 375.023438 63.351562 377.476562 C 63.550781 379.546875 63.96875 380.742188 64.609375 381.0625 C 65.675781 381.816406 66.742188 381.773438 67.800781 380.933594 C 68.292969 380.449219 68.550781 379.875 68.574219 379.21875 C 68.164062 377.160156 67.917969 374.921875 67.835938 372.492188 L 67.847656 368.015625 C 68.109375 362.214844 68.242188 357.570312 68.246094 354.078125 C 68.257812 350.484375 68.09375 346.136719 67.753906 341.027344 C 67.019531 331.863281 65.542969 325.144531 63.320312 320.863281 C 61.574219 317.761719 59.152344 314.957031 56.058594 312.457031 C 53.894531 310.472656 51.039062 308.828125 47.496094 307.511719 C 40.867188 305.6875 35.632812 306.589844 31.792969 310.21875 " fill-opacity="1" fill-rule="nonzero"/><g clip-path="url(#06277deac8)"><path fill="#000000" d="M 803.078125 417.640625 C 795.285156 415.636719 789.21875 413.742188 784.875 411.949219 C 781.40625 410.632812 778.058594 408.449219 774.824219 405.398438 C 770.8125 401.566406 766.746094 396.40625 762.625 389.921875 C 757.589844 381.65625 754.949219 376.027344 754.699219 373.03125 C 767.628906 372.117188 779.203125 376.222656 789.429688 385.34375 C 794.210938 389.957031 797.621094 394.960938 799.664062 400.34375 C 802.035156 406.109375 803.175781 411.847656 803.074219 417.570312 M 807.3125 423.246094 C 808.042969 421.949219 808.15625 418.132812 807.660156 411.796875 C 807.277344 408.375 806.511719 404.949219 805.359375 401.511719 C 802.761719 393.675781 798.375 386.929688 792.210938 381.273438 C 786.132812 375.773438 779.050781 371.921875 770.964844 369.710938 C 766.449219 368.554688 762.101562 367.984375 757.917969 368.007812 C 754.3125 368.046875 751.269531 368.289062 748.785156 368.730469 C 748.0625 368.859375 747.492188 369.277344 747.066406 370 C 746.695312 370.816406 746.695312 371.574219 747.066406 372.265625 C 747.671875 373.308594 748.597656 373.726562 749.839844 373.519531 C 750.179688 377.425781 753.136719 383.882812 758.722656 392.894531 C 763.582031 400.386719 768.085938 405.96875 772.234375 409.640625 C 775.320312 412.628906 779.414062 415.113281 784.519531 417.089844 C 789.410156 418.925781 794.941406 420.605469 801.117188 422.125 C 801.449219 422.238281 801.78125 422.398438 802.121094 422.609375 C 802.878906 423.09375 803.429688 423.523438 803.773438 423.910156 L 804.515625 424.261719 C 805.804688 424.621094 806.726562 424.308594 807.273438 423.328125 " fill-opacity="1" fill-rule="nonzero"/></g><g clip-path="url(#9251093a4e)"><path fill="#000000" d="M 8.464844 394.59375 C 16.253906 396.59375 22.324219 398.496094 26.664062 400.289062 C 30.128906 401.605469 33.480469 403.789062 36.714844 406.835938 C 40.722656 410.671875 44.789062 415.832031 48.914062 422.316406 C 53.949219 430.582031 56.59375 436.207031 56.839844 439.203125 C 43.914062 440.117188 32.332031 436.015625 22.109375 426.886719 C 17.328125 422.277344 13.917969 417.277344 11.878906 411.886719 C 9.5 406.128906 8.363281 400.390625 8.464844 394.664062 M 4.226562 388.988281 C 3.5 390.289062 3.382812 394.105469 3.878906 400.441406 C 4.261719 403.855469 5.027344 407.285156 6.183594 410.722656 C 8.78125 418.5625 13.160156 425.308594 19.332031 430.964844 C 25.40625 436.460938 32.488281 440.316406 40.578125 442.523438 C 45.089844 443.683594 49.4375 444.25 53.617188 444.230469 C 57.230469 444.191406 60.273438 443.949219 62.75 443.5 C 63.476562 443.375 64.050781 442.953125 64.472656 442.238281 C 64.847656 441.417969 64.847656 440.664062 64.476562 439.964844 C 63.867188 438.925781 62.945312 438.511719 61.695312 438.714844 C 61.363281 434.808594 58.398438 428.347656 52.816406 419.34375 C 47.957031 411.851562 43.453125 406.269531 39.308594 402.597656 C 36.222656 399.601562 32.125 397.121094 27.015625 395.140625 C 22.128906 393.3125 16.597656 391.632812 10.425781 390.109375 C 10.09375 389.996094 9.757812 389.835938 9.421875 389.625 C 8.660156 389.144531 8.113281 388.707031 7.765625 388.320312 L 7.023438 387.976562 C 5.734375 387.617188 4.816406 387.925781 4.269531 388.90625 " fill-opacity="1" fill-rule="nonzero"/></g><path fill="#000000" d="M 784.222656 394.71875 C 784.566406 394.007812 784.582031 393.296875 784.265625 392.578125 C 784.171875 392.285156 783.421875 391.378906 782.015625 389.855469 C 779.335938 387.050781 775.933594 384.269531 771.804688 381.511719 L 758.648438 372.976562 C 757.253906 372.121094 755.753906 371.285156 754.144531 370.460938 C 752.085938 369.5625 750.640625 369.824219 749.8125 371.25 C 749.285156 372.410156 749.507812 373.429688 750.484375 374.320312 C 750.824219 374.613281 751.367188 374.808594 752.125 374.917969 C 753.339844 375.546875 754.570312 376.226562 755.808594 376.96875 C 765.160156 382.933594 770.222656 386.238281 771 386.894531 C 774.96875 389.714844 778.203125 392.632812 780.695312 395.640625 C 782.085938 396.390625 783.257812 396.09375 784.203125 394.753906 " fill-opacity="1" fill-rule="nonzero"/><path fill="#000000" d="M 27.316406 417.515625 C 26.976562 418.222656 26.960938 418.941406 27.273438 419.65625 C 27.367188 419.953125 28.117188 420.859375 29.523438 422.378906 C 32.199219 425.183594 35.605469 427.964844 39.734375 430.726562 L 52.894531 439.261719 C 54.289062 440.113281 55.789062 440.953125 57.394531 441.773438 C 59.457031 442.675781 60.902344 442.414062 61.730469 440.984375 C 62.257812 439.828125 62.03125 438.804688 61.058594 437.914062 C 60.714844 437.625 60.167969 437.429688 59.417969 437.320312 C 58.199219 436.691406 56.972656 436.007812 55.734375 435.269531 C 46.378906 429.304688 41.3125 425.992188 40.542969 425.339844 C 36.566406 422.519531 33.339844 419.605469 30.839844 416.597656 C 29.449219 415.847656 28.28125 416.140625 27.332031 417.484375 " fill-opacity="1" fill-rule="nonzero"/><path fill="#000000" d="M 679.777344 409.53125 C 680.820312 408.75 681.675781 407.96875 682.355469 407.183594 C 692.761719 394.851562 698.679688 388.195312 700.117188 387.21875 C 702.84375 384.359375 707.03125 381.238281 712.683594 377.855469 C 717.515625 375.238281 722.429688 373.722656 727.425781 373.304688 C 732.363281 372.886719 738.210938 373.449219 744.972656 374.980469 C 742.339844 381.546875 738.347656 388.101562 733.003906 394.648438 C 727.992188 400.390625 723.050781 404.421875 718.1875 406.746094 C 712.949219 409.460938 707.070312 411.148438 700.542969 411.808594 C 693.753906 412.441406 686.835938 411.683594 679.789062 409.539062 M 674.410156 412.605469 C 681.289062 415.785156 689.566406 417.179688 699.238281 416.78125 C 707.507812 416.25 714.996094 414.121094 721.714844 410.390625 C 728.492188 406.804688 734.972656 400.695312 741.15625 392.066406 C 744.289062 387.765625 747.472656 381.871094 750.699219 374.371094 C 751.304688 372.582031 750.960938 371.316406 749.679688 370.574219 C 748.917969 370.214844 748.160156 370.203125 747.40625 370.546875 C 746.234375 370.136719 742.453125 369.46875 736.050781 368.550781 C 732.910156 368.277344 730.011719 368.226562 727.347656 368.40625 C 721.289062 368.886719 715.46875 370.6875 709.890625 373.808594 C 704.175781 377.3125 700.089844 380.324219 697.632812 382.839844 C 695.945312 384.386719 693.84375 386.53125 691.324219 389.273438 L 678.242188 404.425781 L 676.304688 406.019531 L 673.613281 407.617188 L 672.996094 408.148438 C 671.648438 409.730469 672.082031 411.191406 674.300781 412.542969 " fill-opacity="1" fill-rule="nonzero"/><path fill="#000000" d="M 131.761719 402.699219 C 130.722656 403.480469 129.859375 404.265625 129.183594 405.050781 C 118.78125 417.382812 112.859375 424.039062 111.421875 425.015625 C 108.695312 427.878906 104.507812 431 98.851562 434.382812 C 94.019531 436.996094 89.109375 438.511719 84.117188 438.929688 C 79.175781 439.34375 73.328125 438.789062 66.566406 437.253906 C 69.203125 430.6875 73.191406 424.132812 78.53125 417.585938 C 83.546875 411.847656 88.488281 407.8125 93.355469 405.488281 C 98.585938 402.777344 104.46875 401.089844 110.996094 400.429688 C 117.785156 399.796875 124.703125 400.554688 131.75 402.695312 M 137.132812 399.632812 C 130.25 396.445312 121.972656 395.054688 112.300781 395.453125 C 104.03125 395.984375 96.539062 398.113281 89.828125 401.84375 C 83.050781 405.429688 76.570312 411.539062 70.382812 420.164062 C 67.25 424.464844 64.066406 430.367188 60.835938 437.867188 C 60.234375 439.65625 60.574219 440.917969 61.863281 441.660156 C 62.621094 442.019531 63.378906 442.03125 64.132812 441.683594 C 65.304688 442.101562 69.085938 442.765625 75.488281 443.6875 C 78.625 443.960938 81.527344 444.007812 84.191406 443.832031 C 90.253906 443.347656 96.074219 441.546875 101.648438 438.425781 C 107.363281 434.921875 111.449219 431.910156 113.90625 429.390625 C 115.59375 427.851562 117.699219 425.703125 120.210938 422.960938 L 133.300781 407.808594 L 135.234375 406.214844 L 137.929688 404.613281 L 138.542969 404.085938 C 139.890625 402.507812 139.457031 401.042969 137.242188 399.691406 " fill-opacity="1" fill-rule="nonzero"/><path fill="#000000" d="M 707.757812 397.699219 C 708.625 398.269531 709.894531 398.039062 711.5625 397.011719 L 719.679688 392.335938 L 729.730469 385.875 C 731.644531 384.769531 733.289062 383.902344 734.667969 383.269531 C 735.949219 382.644531 737.941406 381.878906 740.648438 380.980469 L 742.921875 380.335938 C 745.039062 379.871094 746.777344 379.457031 748.148438 379.085938 C 748.542969 378.992188 748.941406 378.835938 749.335938 378.613281 C 750.351562 378.082031 750.902344 377.347656 750.988281 376.398438 C 751.050781 375.410156 750.640625 374.632812 749.753906 374.0625 C 749.152344 373.753906 748.570312 373.667969 748.003906 373.8125 C 747.679688 373.878906 747.316406 374.054688 746.917969 374.355469 C 745.789062 374.667969 744.019531 375.089844 741.605469 375.625 L 738.789062 376.441406 C 735.292969 377.53125 731.765625 379.089844 728.214844 381.113281 C 727.507812 381.507812 726.78125 381.9375 726.046875 382.410156 C 721.878906 385.164062 718.734375 387.191406 716.605469 388.484375 L 709.753906 392.433594 L 707.410156 393.628906 C 706.761719 394.160156 706.457031 394.867188 706.492188 395.746094 C 706.578125 396.597656 707 397.25 707.75 397.695312 " fill-opacity="1" fill-rule="nonzero"/><path fill="#000000" d="M 103.78125 414.539062 C 102.914062 413.964844 101.648438 414.191406 99.976562 415.21875 L 91.863281 419.898438 L 81.8125 426.355469 C 79.894531 427.464844 78.246094 428.332031 76.871094 428.960938 C 75.589844 429.589844 73.597656 430.355469 70.890625 431.257812 L 68.617188 431.898438 C 66.503906 432.359375 64.757812 432.78125 63.390625 433.148438 C 62.996094 433.242188 62.597656 433.398438 62.203125 433.617188 C 61.191406 434.148438 60.636719 434.890625 60.546875 435.832031 C 60.488281 436.828125 60.902344 437.605469 61.78125 438.171875 C 62.390625 438.480469 62.972656 438.5625 63.535156 438.421875 C 63.859375 438.359375 64.222656 438.175781 64.621094 437.882812 C 65.75 437.570312 67.519531 437.144531 69.929688 436.609375 L 72.75 435.796875 C 76.25 434.699219 79.777344 433.144531 83.328125 431.125 C 84.035156 430.730469 84.757812 430.296875 85.496094 429.828125 C 89.660156 427.074219 92.808594 425.046875 94.929688 423.753906 L 101.789062 419.800781 L 104.132812 418.601562 C 104.78125 418.074219 105.085938 417.371094 105.050781 416.492188 C 104.960938 415.632812 104.542969 414.984375 103.789062 414.542969 " fill-opacity="1" fill-rule="nonzero"/><g fill="#000000" fill-opacity="1"><g transform="translate(298.099, 541.954148)"><g><path d="M 146.359375 -2.292969 C 159.664062 -2.292969 170.675781 -21.105469 176.179688 -32.574219 C 177.558594 -36.703125 179.390625 -40.375 181.226562 -44.046875 C 183.0625 -47.714844 184.898438 -51.386719 186.273438 -55.054688 L 187.191406 -57.351562 C 187.652344 -59.1875 185.816406 -60.5625 183.980469 -60.5625 C 181.6875 -60.5625 180.308594 -60.101562 179.851562 -59.1875 C 179.390625 -58.269531 178.476562 -57.351562 178.015625 -56.433594 C 177.097656 -55.054688 176.179688 -54.140625 175.722656 -52.761719 C 174.34375 -50.46875 172.96875 -47.714844 171.59375 -44.960938 C 170.214844 -42.210938 168.839844 -39.457031 167.464844 -36.703125 C 163.792969 -28.90625 158.289062 -22.480469 152.324219 -15.597656 C 150.945312 -13.765625 148.652344 -12.386719 146.359375 -11.011719 C 145.898438 -10.550781 144.980469 -10.550781 144.523438 -10.550781 C 142.230469 -10.550781 140.851562 -11.46875 140.394531 -13.304688 C 137.183594 -19.269531 136.722656 -24.316406 136.265625 -31.199219 C 136.265625 -77.539062 147.277344 -123.417969 161.5 -167.464844 C 167.464844 -186.273438 172.96875 -204.625 178.476562 -223.4375 C 182.144531 -236.285156 185.816406 -249.128906 187.652344 -263.351562 C 187.652344 -264.730469 187.652344 -266.566406 188.109375 -268.398438 C 188.109375 -269.777344 188.109375 -271.613281 188.109375 -272.988281 C 187.652344 -278.492188 182.144531 -288.128906 175.261719 -288.128906 C 173.429688 -288.128906 171.59375 -287.210938 170.214844 -285.835938 C 159.664062 -277.117188 153.242188 -264.269531 146.359375 -252.800781 C 133.511719 -231.238281 123.878906 -208.296875 114.242188 -185.816406 C 108.738281 -173.429688 103.691406 -161.5 98.644531 -149.109375 C 93.597656 -138.558594 89.464844 -129.382812 84.417969 -119.746094 L 81.207031 -115.617188 C 81.207031 -115.617188 81.207031 -115.617188 80.75 -115.160156 L 80.289062 -115.160156 C 79.832031 -115.160156 79.832031 -115.160156 79.375 -115.617188 C 79.375 -116.078125 79.375 -116.996094 79.375 -117.453125 C 78.914062 -117.914062 78.914062 -118.371094 79.375 -118.832031 C 81.667969 -129.839844 83.960938 -140.851562 85.796875 -151.863281 L 92.679688 -189.027344 C 93.597656 -194.074219 93.136719 -198.660156 91.761719 -202.792969 C 89.925781 -207.839844 86.714844 -210.589844 81.667969 -211.96875 C 81.207031 -212.425781 79.832031 -212.425781 78.457031 -212.425781 C 75.242188 -212.425781 72.949219 -211.507812 71.113281 -209.214844 C 69.738281 -207.839844 68.363281 -206.003906 67.445312 -204.625 C 66.066406 -202.792969 65.148438 -200.957031 63.773438 -199.578125 C 45.421875 -170.214844 28.445312 -126.171875 19.730469 -93.136719 L 18.351562 -89.464844 C 17.894531 -89.007812 17.433594 -89.007812 16.515625 -89.007812 L 16.058594 -89.464844 C 15.597656 -92.21875 15.597656 -94.972656 16.515625 -97.726562 C 16.976562 -100.476562 17.433594 -103.230469 17.894531 -105.523438 C 19.730469 -121.582031 22.023438 -136.265625 26.152344 -151.40625 C 33.492188 -182.144531 39.914062 -211.96875 45.878906 -243.167969 L 47.257812 -248.210938 C 47.714844 -253.257812 43.128906 -257.390625 38.082031 -256.929688 C 36.246094 -256.929688 34.867188 -256.011719 34.410156 -254.175781 C 30.738281 -247.296875 28.90625 -241.789062 27.070312 -234.90625 C 23.859375 -223.4375 21.105469 -211.96875 18.351562 -200.957031 C 15.597656 -189.484375 12.847656 -178.476562 9.636719 -167.003906 C 0.457031 -130.300781 -6.882812 -83.960938 -6.882812 -45.421875 C -6.882812 -42.210938 -6.421875 -40.375 -5.964844 -39 C -2.753906 -29.820312 1.835938 -29.363281 9.636719 -29.363281 C 11.011719 -29.363281 12.386719 -30.28125 12.847656 -31.65625 C 14.222656 -34.410156 15.140625 -37.164062 15.597656 -39.914062 C 18.351562 -50.007812 21.105469 -60.101562 24.316406 -70.65625 C 27.070312 -80.75 29.820312 -90.84375 32.574219 -101.394531 C 38.539062 -123.417969 59.1875 -179.390625 74.785156 -194.992188 L 75.703125 -194.992188 C 76.160156 -194.992188 76.160156 -194.53125 76.160156 -194.074219 C 76.621094 -192.699219 76.621094 -191.320312 76.160156 -189.945312 C 75.703125 -186.734375 74.785156 -183.523438 73.867188 -180.769531 C 72.949219 -177.558594 72.03125 -174.34375 71.574219 -171.132812 C 67.445312 -155.074219 64.234375 -139.933594 61.019531 -123.878906 C 59.1875 -115.617188 58.726562 -107.359375 59.644531 -99.101562 C 60.5625 -92.21875 64.691406 -87.632812 71.574219 -85.335938 C 72.03125 -85.335938 72.492188 -85.335938 72.949219 -85.335938 C 73.410156 -84.878906 73.410156 -84.878906 73.867188 -84.878906 C 77.078125 -84.878906 79.375 -86.253906 81.207031 -89.007812 L 84.878906 -95.429688 C 93.597656 -113.324219 101.394531 -129.839844 108.738281 -147.734375 C 118.371094 -171.132812 128.464844 -194.074219 139.015625 -216.554688 C 147.734375 -234.449219 155.992188 -251.882812 168.382812 -267.023438 C 168.839844 -267.484375 169.757812 -268.398438 171.59375 -269.777344 L 172.511719 -269.777344 C 172.96875 -269.316406 172.96875 -269.316406 172.96875 -268.859375 C 173.429688 -264.730469 172.050781 -261.058594 170.675781 -257.390625 C 165.628906 -241.332031 161.039062 -226.191406 155.535156 -211.050781 C 139.933594 -167.921875 117.914062 -96.808594 117.914062 -50.925781 L 117.914062 -39 C 117.914062 -30.28125 120.207031 -22.941406 123.878906 -15.140625 C 128.925781 -4.589844 137.183594 -2.292969 146.359375 -2.292969 Z M 146.359375 -2.292969 "/></g></g></g><g fill="#000000" fill-opacity="1"><g transform="translate(477.949749, 541.954148)"><g><path d="M 22.941406 -16.515625 C 24.316406 -16.515625 25.691406 -16.515625 27.070312 -16.515625 C 28.445312 -16.515625 29.363281 -16.515625 30.738281 -16.976562 C 37.621094 -18.351562 43.585938 -19.269531 49.09375 -22.480469 C 50.925781 -22.941406 52.761719 -24.316406 54.140625 -26.609375 C 54.597656 -27.988281 54.597656 -28.90625 53.222656 -29.363281 C 52.304688 -30.28125 50.46875 -30.738281 48.175781 -30.738281 L 42.667969 -27.527344 C 35.785156 -24.316406 27.527344 -22.480469 18.8125 -22.480469 C 13.765625 -22.941406 11.011719 -25.691406 10.550781 -30.738281 C 10.550781 -32.117188 10.550781 -33.035156 10.550781 -34.410156 C 10.550781 -35.785156 10.550781 -36.703125 11.011719 -38.082031 C 11.46875 -41.75 12.386719 -45.421875 12.847656 -49.09375 C 13.304688 -52.304688 13.765625 -55.972656 14.222656 -59.644531 C 15.597656 -67.445312 17.433594 -74.785156 19.269531 -82.585938 C 20.644531 -90.382812 22.480469 -98.183594 23.859375 -105.984375 C 27.988281 -128.007812 32.574219 -149.570312 38.082031 -171.132812 L 54.597656 -240.414062 C 55.054688 -243.167969 55.515625 -245.917969 55.972656 -249.128906 C 56.433594 -251.882812 56.433594 -254.636719 56.890625 -257.390625 C 57.351562 -260.140625 55.972656 -262.4375 53.679688 -263.8125 C 53.222656 -264.269531 52.304688 -264.730469 51.386719 -265.1875 C 50.46875 -265.1875 49.550781 -265.648438 48.632812 -266.105469 C 47.257812 -266.566406 45.421875 -266.105469 44.960938 -264.730469 C 43.585938 -261.519531 42.667969 -259.683594 42.210938 -256.472656 C 31.65625 -221.601562 20.1875 -183.0625 12.847656 -148.195312 C 7.800781 -124.792969 3.210938 -101.394531 -1.835938 -77.539062 C -4.128906 -66.527344 -6.421875 -55.972656 -6.882812 -44.503906 L -6.882812 -37.164062 C -6.421875 -24.777344 -2.292969 -19.269531 10.09375 -17.433594 C 10.550781 -16.976562 11.46875 -16.976562 12.386719 -16.976562 C 14.222656 -16.515625 16.058594 -16.515625 17.894531 -16.515625 C 19.269531 -16.515625 21.105469 -16.515625 22.941406 -16.515625 Z M 22.941406 -16.515625 "/></g></g></g></svg>